<svg xmlns="http://www.w3.org/2000/svg" version="1.1" xmlns:xlink="http://www.w3.org/1999/xlink" xmlns:svgjs="http://svgjs.dev/svgjs" width="1440" height="560" preserveAspectRatio="none" viewBox="0 0 1440 560"><g mask="url(&quot;#SvgjsMask1005&quot;)" fill="none"><rect width="1440" height="560" x="0" y="0" fill="url(&quot;#SvgjsLinearGradient1006&quot;)"></rect><path d="M-53.69 369.71L-53.69 369.71" stroke="#132e65" stroke-width="1.5"></path><path d="M-53.69 369.71L109.29 377.83" stroke="#132e65" stroke-width="1.5"></path><path d="M-53.69 369.71L-62.02 560.56" stroke="#132e65" stroke-width="1.5"></path><path d="M-62.02 560.56L-62.02 560.56" stroke="#132e65" stroke-width="1.5"></path><path d="M-62.02 560.56L-47.31 654.83" stroke="#132e65" stroke-width="1.5"></path><path d="M-62.02 560.56L51.71 651.84" stroke="#132e65" stroke-width="1.5"></path><path d="M-47.31 654.83L-47.31 654.83" stroke="#132e65" stroke-width="1.5"></path><path d="M-47.31 654.83L51.71 651.84" stroke="#132e65" stroke-width="1.5"></path><path d="M-47.31 654.83L89.08 538.34" stroke="#132e65" stroke-width="1.5"></path><path d="M109.29 377.83L109.29 377.83" stroke="#132e65" stroke-width="1.5"></path><path d="M109.29 377.83L205.8 408.09" stroke="#132e65" stroke-width="1.5"></path><path d="M109.29 377.83L89.08 538.34" stroke="#132e65" stroke-width="1.5"></path><path d="M109.29 377.83L203.21 536.55" stroke="#132e65" stroke-width="1.5"></path><path d="M109.29 377.83L342.67 382.93" stroke="#132e65" stroke-width="1.5"></path><path d="M109.29 377.83L-62.02 560.56" stroke="#132e65" stroke-width="1.5"></path><path d="M89.08 538.34L89.08 538.34" stroke="#132e65" stroke-width="1.5"></path><path d="M89.08 538.34L203.21 536.55" stroke="#132e65" stroke-width="1.5"></path><path d="M89.08 538.34L51.71 651.84" stroke="#132e65" stroke-width="1.5"></path><path d="M51.71 651.84L51.71 651.84" stroke="#132e65" stroke-width="1.5"></path><path d="M51.71 651.84L194.32 674.78" stroke="#132e65" stroke-width="1.5"></path><path d="M51.71 651.84L203.21 536.55" stroke="#132e65" stroke-width="1.5"></path><path d="M205.8 408.09L205.8 408.09" stroke="#132e65" stroke-width="1.5"></path><path d="M205.8 408.09L203.21 536.55" stroke="#132e65" stroke-width="1.5"></path><path d="M205.8 408.09L342.67 382.93" stroke="#132e65" stroke-width="1.5"></path><path d="M205.8 408.09L89.08 538.34" stroke="#132e65" stroke-width="1.5"></path><path d="M203.21 536.55L203.21 536.55" stroke="#132e65" stroke-width="1.5"></path><path d="M194.32 674.78L194.32 674.78" stroke="#132e65" stroke-width="1.5"></path><path d="M194.32 674.78L203.21 536.55" stroke="#132e65" stroke-width="1.5"></path><path d="M342.67 382.93L342.67 382.93" stroke="#132e65" stroke-width="1.5"></path><path d="M342.67 382.93L379.4 522.87" stroke="#132e65" stroke-width="1.5"></path><path d="M342.67 382.93L498.17 514.81" stroke="#132e65" stroke-width="1.5"></path><path d="M379.4 522.87L379.4 522.87" stroke="#132e65" stroke-width="1.5"></path><path d="M379.4 522.87L498.17 514.81" stroke="#132e65" stroke-width="1.5"></path><path d="M379.4 522.87L338.81 671.07" stroke="#132e65" stroke-width="1.5"></path><path d="M379.4 522.87L203.21 536.55" stroke="#132e65" stroke-width="1.5"></path><path d="M338.81 671.07L338.81 671.07" stroke="#132e65" stroke-width="1.5"></path><path d="M338.81 671.07L194.32 674.78" stroke="#132e65" stroke-width="1.5"></path><path d="M338.81 671.07L203.21 536.55" stroke="#132e65" stroke-width="1.5"></path><path d="M338.81 671.07L533.23 704.03" stroke="#132e65" stroke-width="1.5"></path><path d="M338.81 671.07L498.17 514.81" stroke="#132e65" stroke-width="1.5"></path><path d="M338.81 671.07L89.08 538.34" stroke="#132e65" stroke-width="1.5"></path><path d="M555.26 405.42L555.26 405.42" stroke="#132e65" stroke-width="1.5"></path><path d="M555.26 405.42L645.13 371.5" stroke="#132e65" stroke-width="1.5"></path><path d="M555.26 405.42L498.17 514.81" stroke="#132e65" stroke-width="1.5"></path><path d="M555.26 405.42L673.12 526.19" stroke="#132e65" stroke-width="1.5"></path><path d="M555.26 405.42L379.4 522.87" stroke="#132e65" stroke-width="1.5"></path><path d="M555.26 405.42L342.67 382.93" stroke="#132e65" stroke-width="1.5"></path><path d="M555.26 405.42L801.03 501.45" stroke="#132e65" stroke-width="1.5"></path><path d="M498.17 514.81L498.17 514.81" stroke="#132e65" stroke-width="1.5"></path><path d="M498.17 514.81L673.12 526.19" stroke="#132e65" stroke-width="1.5"></path><path d="M498.17 514.81L533.23 704.03" stroke="#132e65" stroke-width="1.5"></path><path d="M533.23 704.03L533.23 704.03" stroke="#132e65" stroke-width="1.5"></path><path d="M533.23 704.03L670.75 684.81" stroke="#132e65" stroke-width="1.5"></path><path d="M533.23 704.03L673.12 526.19" stroke="#132e65" stroke-width="1.5"></path><path d="M645.13 371.5L645.13 371.5" stroke="#132e65" stroke-width="1.5"></path><path d="M645.13 371.5L673.12 526.19" stroke="#132e65" stroke-width="1.5"></path><path d="M645.13 371.5L821.9 345.49" stroke="#132e65" stroke-width="1.5"></path><path d="M645.13 371.5L801.03 501.45" stroke="#132e65" stroke-width="1.5"></path><path d="M673.12 526.19L673.12 526.19" stroke="#132e65" stroke-width="1.5"></path><path d="M673.12 526.19L801.03 501.45" stroke="#132e65" stroke-width="1.5"></path><path d="M673.12 526.19L670.75 684.81" stroke="#132e65" stroke-width="1.5"></path><path d="M670.75 684.81L670.75 684.81" stroke="#132e65" stroke-width="1.5"></path><path d="M670.75 684.81L832.77 690.09" stroke="#132e65" stroke-width="1.5"></path><path d="M670.75 684.81L801.03 501.45" stroke="#132e65" stroke-width="1.5"></path><path d="M670.75 684.81L498.17 514.81" stroke="#132e65" stroke-width="1.5"></path><path d="M670.75 684.81L555.26 405.42" stroke="#132e65" stroke-width="1.5"></path><path d="M860.1 49.33L860.1 49.33" stroke="#132e65" stroke-width="1.5"></path><path d="M860.1 49.33L1000.42 84.21" stroke="#132e65" stroke-width="1.5"></path><path d="M860.1 49.33L854.63 195.12" stroke="#132e65" stroke-width="1.5"></path><path d="M860.1 49.33L953.29 216.14" stroke="#132e65" stroke-width="1.5"></path><path d="M860.1 49.33L1113.05 49.41" stroke="#132e65" stroke-width="1.5"></path><path d="M854.63 195.12L854.63 195.12" stroke="#132e65" stroke-width="1.5"></path><path d="M854.63 195.12L953.29 216.14" stroke="#132e65" stroke-width="1.5"></path><path d="M821.9 345.49L821.9 345.49" stroke="#132e65" stroke-width="1.5"></path><path d="M821.9 345.49L945.99 338.03" stroke="#132e65" stroke-width="1.5"></path><path d="M821.9 345.49L854.63 195.12" stroke="#132e65" stroke-width="1.5"></path><path d="M821.9 345.49L801.03 501.45" stroke="#132e65" stroke-width="1.5"></path><path d="M801.03 501.45L801.03 501.45" stroke="#132e65" stroke-width="1.5"></path><path d="M801.03 501.45L971.3 522.13" stroke="#132e65" stroke-width="1.5"></path><path d="M801.03 501.45L832.77 690.09" stroke="#132e65" stroke-width="1.5"></path><path d="M832.77 690.09L832.77 690.09" stroke="#132e65" stroke-width="1.5"></path><path d="M832.77 690.09L1001.86 683.83" stroke="#132e65" stroke-width="1.5"></path><path d="M1000.42 84.21L1000.42 84.21" stroke="#132e65" stroke-width="1.5"></path><path d="M1000.42 84.21L1113.05 49.41" stroke="#132e65" stroke-width="1.5"></path><path d="M1000.42 84.21L953.29 216.14" stroke="#132e65" stroke-width="1.5"></path><path d="M1000.42 84.21L1126.4 208.94" stroke="#132e65" stroke-width="1.5"></path><path d="M1000.42 84.21L854.63 195.12" stroke="#132e65" stroke-width="1.5"></path><path d="M1000.42 84.21L1106.18 -76.35" stroke="#132e65" stroke-width="1.5"></path><path d="M953.29 216.14L953.29 216.14" stroke="#132e65" stroke-width="1.5"></path><path d="M953.29 216.14L945.99 338.03" stroke="#132e65" stroke-width="1.5"></path><path d="M953.29 216.14L1126.4 208.94" stroke="#132e65" stroke-width="1.5"></path><path d="M953.29 216.14L821.9 345.49" stroke="#132e65" stroke-width="1.5"></path><path d="M945.99 338.03L945.99 338.03" stroke="#132e65" stroke-width="1.5"></path><path d="M945.99 338.03L854.63 195.12" stroke="#132e65" stroke-width="1.5"></path><path d="M945.99 338.03L1109.22 411.76" stroke="#132e65" stroke-width="1.5"></path><path d="M945.99 338.03L971.3 522.13" stroke="#132e65" stroke-width="1.5"></path><path d="M945.99 338.03L801.03 501.45" stroke="#132e65" stroke-width="1.5"></path><path d="M971.3 522.13L971.3 522.13" stroke="#132e65" stroke-width="1.5"></path><path d="M971.3 522.13L1001.86 683.83" stroke="#132e65" stroke-width="1.5"></path><path d="M1001.86 683.83L1001.86 683.83" stroke="#132e65" stroke-width="1.5"></path><path d="M1001.86 683.83L1134.04 676.55" stroke="#132e65" stroke-width="1.5"></path><path d="M1001.86 683.83L1148.21 545.14" stroke="#132e65" stroke-width="1.5"></path><path d="M1001.86 683.83L801.03 501.45" stroke="#132e65" stroke-width="1.5"></path><path d="M1001.86 683.83L1281.19 674.58" stroke="#132e65" stroke-width="1.5"></path><path d="M1106.18 -76.35L1106.18 -76.35" stroke="#132e65" stroke-width="1.5"></path><path d="M1106.18 -76.35L1113.05 49.41" stroke="#132e65" stroke-width="1.5"></path><path d="M1106.18 -76.35L1291.9 -88.48" stroke="#132e65" stroke-width="1.5"></path><path d="M1106.18 -76.35L1242.76 106.2" stroke="#132e65" stroke-width="1.5"></path><path d="M1113.05 49.41L1113.05 49.41" stroke="#132e65" stroke-width="1.5"></path><path d="M1113.05 49.41L1242.76 106.2" stroke="#132e65" stroke-width="1.5"></path><path d="M1113.05 49.41L1126.4 208.94" stroke="#132e65" stroke-width="1.5"></path><path d="M1126.4 208.94L1126.4 208.94" stroke="#132e65" stroke-width="1.5"></path><path d="M1126.4 208.94L1242.76 106.2" stroke="#132e65" stroke-width="1.5"></path><path d="M1126.4 208.94L1307.57 211.86" stroke="#132e65" stroke-width="1.5"></path><path d="M1109.22 411.76L1109.22 411.76" stroke="#132e65" stroke-width="1.5"></path><path d="M1109.22 411.76L1148.21 545.14" stroke="#132e65" stroke-width="1.5"></path><path d="M1109.22 411.76L1252.54 407.25" stroke="#132e65" stroke-width="1.5"></path><path d="M1148.21 545.14L1148.21 545.14" stroke="#132e65" stroke-width="1.5"></path><path d="M1148.21 545.14L1269.15 509.95" stroke="#132e65" stroke-width="1.5"></path><path d="M1148.21 545.14L1134.04 676.55" stroke="#132e65" stroke-width="1.5"></path><path d="M1134.04 676.55L1134.04 676.55" stroke="#132e65" stroke-width="1.5"></path><path d="M1134.04 676.55L1281.19 674.58" stroke="#132e65" stroke-width="1.5"></path><path d="M1134.04 676.55L1269.15 509.95" stroke="#132e65" stroke-width="1.5"></path><path d="M1134.04 676.55L971.3 522.13" stroke="#132e65" stroke-width="1.5"></path><path d="M1291.9 -88.48L1291.9 -88.48" stroke="#132e65" stroke-width="1.5"></path><path d="M1291.9 -88.48L1242.76 106.2" stroke="#132e65" stroke-width="1.5"></path><path d="M1291.9 -88.48L1113.05 49.41" stroke="#132e65" stroke-width="1.5"></path><path d="M1291.9 -88.48L1416.67 109.15" stroke="#132e65" stroke-width="1.5"></path><path d="M1291.9 -88.48L1565.58 -57.73" stroke="#132e65" stroke-width="1.5"></path><path d="M1242.76 106.2L1242.76 106.2" stroke="#132e65" stroke-width="1.5"></path><path d="M1242.76 106.2L1307.57 211.86" stroke="#132e65" stroke-width="1.5"></path><path d="M1242.76 106.2L1416.67 109.15" stroke="#132e65" stroke-width="1.5"></path><path d="M1307.57 211.86L1307.57 211.86" stroke="#132e65" stroke-width="1.5"></path><path d="M1307.57 211.86L1431.67 256.33" stroke="#132e65" stroke-width="1.5"></path><path d="M1252.54 407.25L1252.54 407.25" stroke="#132e65" stroke-width="1.5"></path><path d="M1252.54 407.25L1269.15 509.95" stroke="#132e65" stroke-width="1.5"></path><path d="M1269.15 509.95L1269.15 509.95" stroke="#132e65" stroke-width="1.5"></path><path d="M1269.15 509.95L1411.23 530.92" stroke="#132e65" stroke-width="1.5"></path><path d="M1269.15 509.95L1281.19 674.58" stroke="#132e65" stroke-width="1.5"></path><path d="M1269.15 509.95L1109.22 411.76" stroke="#132e65" stroke-width="1.5"></path><path d="M1281.19 674.58L1281.19 674.58" stroke="#132e65" stroke-width="1.5"></path><path d="M1281.19 674.58L1412.33 652.74" stroke="#132e65" stroke-width="1.5"></path><path d="M1416.67 109.15L1416.67 109.15" stroke="#132e65" stroke-width="1.5"></path><path d="M1416.67 109.15L1431.67 256.33" stroke="#132e65" stroke-width="1.5"></path><path d="M1416.67 109.15L1307.57 211.86" stroke="#132e65" stroke-width="1.5"></path><path d="M1431.67 256.33L1431.67 256.33" stroke="#132e65" stroke-width="1.5"></path><path d="M1431.67 256.33L1441.12 339.16" stroke="#132e65" stroke-width="1.5"></path><path d="M1441.12 339.16L1441.12 339.16" stroke="#132e65" stroke-width="1.5"></path><path d="M1441.12 339.16L1543.22 376.12" stroke="#132e65" stroke-width="1.5"></path><path d="M1441.12 339.16L1580.36 218.29" stroke="#132e65" stroke-width="1.5"></path><path d="M1411.23 530.92L1411.23 530.92" stroke="#132e65" stroke-width="1.5"></path><path d="M1411.23 530.92L1412.33 652.74" stroke="#132e65" stroke-width="1.5"></path><path d="M1411.23 530.92L1281.19 674.58" stroke="#132e65" stroke-width="1.5"></path><path d="M1412.33 652.74L1412.33 652.74" stroke="#132e65" stroke-width="1.5"></path><path d="M1412.33 652.74L1557.85 702.83" stroke="#132e65" stroke-width="1.5"></path><path d="M1412.33 652.74L1269.15 509.95" stroke="#132e65" stroke-width="1.5"></path><path d="M1412.33 652.74L1134.04 676.55" stroke="#132e65" stroke-width="1.5"></path><path d="M1565.58 -57.73L1565.58 -57.73" stroke="#132e65" stroke-width="1.5"></path><path d="M1565.58 -57.73L1580.98 100.92" stroke="#132e65" stroke-width="1.5"></path><path d="M1565.58 -57.73L1416.67 109.15" stroke="#132e65" stroke-width="1.5"></path><path d="M1565.58 -57.73L1580.36 218.29" stroke="#132e65" stroke-width="1.5"></path><path d="M1565.58 -57.73L1431.67 256.33" stroke="#132e65" stroke-width="1.5"></path><path d="M1565.58 -57.73L1242.76 106.2" stroke="#132e65" stroke-width="1.5"></path><path d="M1580.98 100.92L1580.98 100.92" stroke="#132e65" stroke-width="1.5"></path><path d="M1580.98 100.92L1580.36 218.29" stroke="#132e65" stroke-width="1.5"></path><path d="M1580.98 100.92L1416.67 109.15" stroke="#132e65" stroke-width="1.5"></path><path d="M1580.36 218.29L1580.36 218.29" stroke="#132e65" stroke-width="1.5"></path><path d="M1580.36 218.29L1431.67 256.33" stroke="#132e65" stroke-width="1.5"></path><path d="M1543.22 376.12L1543.22 376.12" stroke="#132e65" stroke-width="1.5"></path><path d="M1543.22 376.12L1580.36 218.29" stroke="#132e65" stroke-width="1.5"></path><path d="M1543.22 376.12L1431.67 256.33" stroke="#132e65" stroke-width="1.5"></path><path d="M1543.22 376.12L1411.23 530.92" stroke="#132e65" stroke-width="1.5"></path><path d="M1543.22 376.12L1580.98 100.92" stroke="#132e65" stroke-width="1.5"></path><path d="M1557.85 702.83L1557.85 702.83" stroke="#132e65" stroke-width="1.5"></path><circle r="5" cx="-53.69" cy="369.71" fill="#132e65"></circle><circle r="5" cx="-62.02" cy="560.56" fill="#132e65"></circle><circle r="5" cx="-47.31" cy="654.83" fill="#132e65"></circle><circle r="5" cx="109.29" cy="377.83" fill="#132e65"></circle><circle r="5" cx="89.08" cy="538.34" fill="#132e65"></circle><circle r="5" cx="51.71" cy="651.84" fill="#132e65"></circle><circle r="5" cx="205.8" cy="408.09" fill="#132e65"></circle><circle r="5" cx="203.21" cy="536.55" fill="#132e65"></circle><circle r="5" cx="194.32" cy="674.78" fill="#132e65"></circle><circle r="5" cx="342.67" cy="382.93" fill="#132e65"></circle><circle r="5" cx="379.4" cy="522.87" fill="#132e65"></circle><circle r="5" cx="338.81" cy="671.07" fill="#132e65"></circle><circle r="5" cx="555.26" cy="405.42" fill="#132e65"></circle><circle r="5" cx="498.17" cy="514.81" fill="#132e65"></circle><circle r="5" cx="533.23" cy="704.03" fill="#132e65"></circle><circle r="5" cx="645.13" cy="371.5" fill="#132e65"></circle><circle r="5" cx="673.12" cy="526.19" fill="#132e65"></circle><circle r="5" cx="670.75" cy="684.81" fill="#132e65"></circle><circle r="5" cx="860.1" cy="49.33" fill="#132e65"></circle><circle r="5" cx="854.63" cy="195.12" fill="#132e65"></circle><circle r="5" cx="821.9" cy="345.49" fill="#132e65"></circle><circle r="5" cx="801.03" cy="501.45" fill="#132e65"></circle><circle r="5" cx="832.77" cy="690.09" fill="#132e65"></circle><circle r="5" cx="1000.42" cy="84.21" fill="#132e65"></circle><circle r="5" cx="953.29" cy="216.14" fill="#132e65"></circle><circle r="5" cx="945.99" cy="338.03" fill="#132e65"></circle><circle r="5" cx="971.3" cy="522.13" fill="#132e65"></circle><circle r="5" cx="1001.86" cy="683.83" fill="#132e65"></circle><circle r="5" cx="1106.18" cy="-76.35" fill="#132e65"></circle><circle r="5" cx="1113.05" cy="49.41" fill="#132e65"></circle><circle r="5" cx="1126.4" cy="208.94" fill="#132e65"></circle><circle r="5" cx="1109.22" cy="411.76" fill="#132e65"></circle><circle r="5" cx="1148.21" cy="545.14" fill="#132e65"></circle><circle r="5" cx="1134.04" cy="676.55" fill="#132e65"></circle><circle r="5" cx="1291.9" cy="-88.48" fill="#132e65"></circle><circle r="5" cx="1242.76" cy="106.2" fill="#132e65"></circle><circle r="5" cx="1307.57" cy="211.86" fill="#132e65"></circle><circle r="5" cx="1252.54" cy="407.25" fill="#132e65"></circle><circle r="5" cx="1269.15" cy="509.95" fill="#132e65"></circle><circle r="5" cx="1281.19" cy="674.58" fill="#132e65"></circle><circle r="5" cx="1416.67" cy="109.15" fill="#132e65"></circle><circle r="5" cx="1431.67" cy="256.33" fill="#132e65"></circle><circle r="5" cx="1441.12" cy="339.16" fill="#132e65"></circle><circle r="5" cx="1411.23" cy="530.92" fill="#132e65"></circle><circle r="5" cx="1412.33" cy="652.74" fill="#132e65"></circle><circle r="5" cx="1565.58" cy="-57.73" fill="#132e65"></circle><circle r="5" cx="1580.98" cy="100.92" fill="#132e65"></circle><circle r="5" cx="1580.36" cy="218.29" fill="#132e65"></circle><circle r="5" cx="1543.22" cy="376.12" fill="#132e65"></circle><circle r="5" cx="1557.85" cy="702.83" fill="#132e65"></circle><path d="M798.99 492.15L798.99 492.15" stroke="hsl(228.5, 77.2%, 51.5%)" stroke-width="1.5"></path><path d="M798.99 492.15L854.55 339.54" stroke="hsl(228.5, 77.2%, 51.5%)" stroke-width="1.5"></path><path d="M798.99 492.15L845.46 662.1" stroke="hsl(228.5, 77.2%, 51.5%)" stroke-width="1.5"></path><path d="M798.99 492.15L705.15 648.64" stroke="hsl(228.5, 77.2%, 51.5%)" stroke-width="1.5"></path><path d="M798.99 492.15L966.6 383.81" stroke="hsl(228.5, 77.2%, 51.5%)" stroke-width="1.5"></path><path d="M1159.33 241.08L1159.33 241.08" stroke="hsl(228.5, 77.2%, 51.5%)" stroke-width="1.5"></path><path d="M1159.33 241.08L1160.03 109.4" stroke="hsl(228.5, 77.2%, 51.5%)" stroke-width="1.5"></path><path d="M1159.33 241.08L1298.59 240.83" stroke="hsl(228.5, 77.2%, 51.5%)" stroke-width="1.5"></path><path d="M1159.33 241.08L1141.51 380.91" stroke="hsl(228.5, 77.2%, 51.5%)" stroke-width="1.5"></path><path d="M1159.33 241.08L1270.98 385.72" stroke="hsl(228.5, 77.2%, 51.5%)" stroke-width="1.5"></path><path d="M1159.33 241.08L966.6 383.81" stroke="hsl(228.5, 77.2%, 51.5%)" stroke-width="1.5"></path><path d="M1159.33 241.08L1390.89 355.54" stroke="hsl(228.5, 77.2%, 51.5%)" stroke-width="1.5"></path><path d="M1298.59 240.83L1298.59 240.83" stroke="hsl(228.5, 77.2%, 51.5%)" stroke-width="1.5"></path><path d="M1298.59 240.83L1437.27 261.92" stroke="hsl(228.5, 77.2%, 51.5%)" stroke-width="1.5"></path><path d="M1298.59 240.83L1390.89 355.54" stroke="hsl(228.5, 77.2%, 51.5%)" stroke-width="1.5"></path><path d="M1298.59 240.83L1270.98 385.72" stroke="hsl(228.5, 77.2%, 51.5%)" stroke-width="1.5"></path><path d="M1265.2 706.17L1265.2 706.17" stroke="hsl(228.5, 77.2%, 51.5%)" stroke-width="1.5"></path><path d="M1265.2 706.17L1438.9 540.64" stroke="hsl(228.5, 77.2%, 51.5%)" stroke-width="1.5"></path><path d="M1265.2 706.17L1095.04 499.59" stroke="hsl(228.5, 77.2%, 51.5%)" stroke-width="1.5"></path><path d="M1265.2 706.17L970.36 640.32" stroke="hsl(228.5, 77.2%, 51.5%)" stroke-width="1.5"></path><path d="M1265.2 706.17L1564.29 645.81" stroke="hsl(228.5, 77.2%, 51.5%)" stroke-width="1.5"></path><path d="M1265.2 706.17L992.46 543.8" stroke="hsl(228.5, 77.2%, 51.5%)" stroke-width="1.5"></path><path d="M1265.2 706.17L1270.98 385.72" stroke="hsl(228.5, 77.2%, 51.5%)" stroke-width="1.5"></path><path d="M1397.2 -100.71L1397.2 -100.71" stroke="hsl(228.5, 77.2%, 51.5%)" stroke-width="1.5"></path><path d="M1397.2 -100.71L1296.32 -107.44" stroke="hsl(228.5, 77.2%, 51.5%)" stroke-width="1.5"></path><path d="M1397.2 -100.71L1570.18 -50.98" stroke="hsl(228.5, 77.2%, 51.5%)" stroke-width="1.5"></path><path d="M1397.2 -100.71L1445.91 90.45" stroke="hsl(228.5, 77.2%, 51.5%)" stroke-width="1.5"></path><path d="M1438.9 540.64L1438.9 540.64" stroke="hsl(228.5, 77.2%, 51.5%)" stroke-width="1.5"></path><path d="M1438.9 540.64L1583.49 518.47" stroke="hsl(228.5, 77.2%, 51.5%)" stroke-width="1.5"></path><path d="M1438.9 540.64L1564.29 645.81" stroke="hsl(228.5, 77.2%, 51.5%)" stroke-width="1.5"></path><path d="M1438.9 540.64L1390.89 355.54" stroke="hsl(228.5, 77.2%, 51.5%)" stroke-width="1.5"></path><path d="M1438.9 540.64L1270.98 385.72" stroke="hsl(228.5, 77.2%, 51.5%)" stroke-width="1.5"></path><path d="M1586.96 76.99L1586.96 76.99" stroke="hsl(228.5, 77.2%, 51.5%)" stroke-width="1.5"></path><path d="M1586.96 76.99L1570.18 -50.98" stroke="hsl(228.5, 77.2%, 51.5%)" stroke-width="1.5"></path><path d="M1586.96 76.99L1445.91 90.45" stroke="hsl(228.5, 77.2%, 51.5%)" stroke-width="1.5"></path><path d="M1586.96 76.99L1597.48 253.29" stroke="hsl(228.5, 77.2%, 51.5%)" stroke-width="1.5"></path><path d="M1564.29 645.81L1564.29 645.81" stroke="hsl(228.5, 77.2%, 51.5%)" stroke-width="1.5"></path><path d="M1564.29 645.81L1583.49 518.47" stroke="hsl(228.5, 77.2%, 51.5%)" stroke-width="1.5"></path><path d="M1564.29 645.81L1606.31 383.68" stroke="hsl(228.5, 77.2%, 51.5%)" stroke-width="1.5"></path><path d="M1564.29 645.81L1390.89 355.54" stroke="hsl(228.5, 77.2%, 51.5%)" stroke-width="1.5"></path><path d="M1564.29 645.81L1270.98 385.72" stroke="hsl(228.5, 77.2%, 51.5%)" stroke-width="1.5"></path><path d="M-53.49 536.69L-53.49 536.69" stroke="hsl(228.5, 77.2%, 51.5%)" stroke-width="1.5"></path><path d="M-53.49 536.69L74.94 544.92" stroke="hsl(228.5, 77.2%, 51.5%)" stroke-width="1.5"></path><path d="M-53.49 536.69L106.62 678.71" stroke="hsl(228.5, 77.2%, 51.5%)" stroke-width="1.5"></path><path d="M-53.49 536.69L202.59 511.8" stroke="hsl(228.5, 77.2%, 51.5%)" stroke-width="1.5"></path><path d="M-53.49 536.69L222.26 651.67" stroke="hsl(228.5, 77.2%, 51.5%)" stroke-width="1.5"></path><path d="M74.94 544.92L74.94 544.92" stroke="hsl(228.5, 77.2%, 51.5%)" stroke-width="1.5"></path><path d="M74.94 544.92L202.59 511.8" stroke="hsl(228.5, 77.2%, 51.5%)" stroke-width="1.5"></path><path d="M74.94 544.92L106.62 678.71" stroke="hsl(228.5, 77.2%, 51.5%)" stroke-width="1.5"></path><path d="M74.94 544.92L222.26 651.67" stroke="hsl(228.5, 77.2%, 51.5%)" stroke-width="1.5"></path><path d="M106.62 678.71L106.62 678.71" stroke="hsl(228.5, 77.2%, 51.5%)" stroke-width="1.5"></path><path d="M106.62 678.71L222.26 651.67" stroke="hsl(228.5, 77.2%, 51.5%)" stroke-width="1.5"></path><path d="M106.62 678.71L202.59 511.8" stroke="hsl(228.5, 77.2%, 51.5%)" stroke-width="1.5"></path><path d="M106.62 678.71L376.36 669.1" stroke="hsl(228.5, 77.2%, 51.5%)" stroke-width="1.5"></path><path d="M202.59 511.8L202.59 511.8" stroke="hsl(228.5, 77.2%, 51.5%)" stroke-width="1.5"></path><path d="M202.59 511.8L338.69 500.14" stroke="hsl(228.5, 77.2%, 51.5%)" stroke-width="1.5"></path><path d="M202.59 511.8L222.26 651.67" stroke="hsl(228.5, 77.2%, 51.5%)" stroke-width="1.5"></path><path d="M202.59 511.8L376.36 669.1" stroke="hsl(228.5, 77.2%, 51.5%)" stroke-width="1.5"></path><path d="M222.26 651.67L222.26 651.67" stroke="hsl(228.5, 77.2%, 51.5%)" stroke-width="1.5"></path><path d="M222.26 651.67L376.36 669.1" stroke="hsl(228.5, 77.2%, 51.5%)" stroke-width="1.5"></path><path d="M338.69 500.14L338.69 500.14" stroke="hsl(228.5, 77.2%, 51.5%)" stroke-width="1.5"></path><path d="M338.69 500.14L376.36 669.1" stroke="hsl(228.5, 77.2%, 51.5%)" stroke-width="1.5"></path><path d="M338.69 500.14L222.26 651.67" stroke="hsl(228.5, 77.2%, 51.5%)" stroke-width="1.5"></path><path d="M338.69 500.14L558.49 492.22" stroke="hsl(228.5, 77.2%, 51.5%)" stroke-width="1.5"></path><path d="M338.69 500.14L554.41 402.3" stroke="hsl(228.5, 77.2%, 51.5%)" stroke-width="1.5"></path><path d="M376.36 669.1L376.36 669.1" stroke="hsl(228.5, 77.2%, 51.5%)" stroke-width="1.5"></path><path d="M376.36 669.1L539.75 681.8" stroke="hsl(228.5, 77.2%, 51.5%)" stroke-width="1.5"></path><path d="M554.41 402.3L554.41 402.3" stroke="hsl(228.5, 77.2%, 51.5%)" stroke-width="1.5"></path><path d="M554.41 402.3L558.49 492.22" stroke="hsl(228.5, 77.2%, 51.5%)" stroke-width="1.5"></path><path d="M558.49 492.22L558.49 492.22" stroke="hsl(228.5, 77.2%, 51.5%)" stroke-width="1.5"></path><path d="M539.75 681.8L539.75 681.8" stroke="hsl(228.5, 77.2%, 51.5%)" stroke-width="1.5"></path><path d="M539.75 681.8L705.15 648.64" stroke="hsl(228.5, 77.2%, 51.5%)" stroke-width="1.5"></path><path d="M539.75 681.8L558.49 492.22" stroke="hsl(228.5, 77.2%, 51.5%)" stroke-width="1.5"></path><path d="M539.75 681.8L338.69 500.14" stroke="hsl(228.5, 77.2%, 51.5%)" stroke-width="1.5"></path><path d="M539.75 681.8L554.41 402.3" stroke="hsl(228.5, 77.2%, 51.5%)" stroke-width="1.5"></path><path d="M539.75 681.8L845.46 662.1" stroke="hsl(228.5, 77.2%, 51.5%)" stroke-width="1.5"></path><path d="M705.15 648.64L705.15 648.64" stroke="hsl(228.5, 77.2%, 51.5%)" stroke-width="1.5"></path><path d="M705.15 648.64L845.46 662.1" stroke="hsl(228.5, 77.2%, 51.5%)" stroke-width="1.5"></path><path d="M705.15 648.64L558.49 492.22" stroke="hsl(228.5, 77.2%, 51.5%)" stroke-width="1.5"></path><path d="M854.55 339.54L854.55 339.54" stroke="hsl(228.5, 77.2%, 51.5%)" stroke-width="1.5"></path><path d="M854.55 339.54L966.6 383.81" stroke="hsl(228.5, 77.2%, 51.5%)" stroke-width="1.5"></path><path d="M854.55 339.54L992.46 543.8" stroke="hsl(228.5, 77.2%, 51.5%)" stroke-width="1.5"></path><path d="M854.55 339.54L1095.04 499.59" stroke="hsl(228.5, 77.2%, 51.5%)" stroke-width="1.5"></path><path d="M854.55 339.54L1141.51 380.91" stroke="hsl(228.5, 77.2%, 51.5%)" stroke-width="1.5"></path><path d="M845.46 662.1L845.46 662.1" stroke="hsl(228.5, 77.2%, 51.5%)" stroke-width="1.5"></path><path d="M845.46 662.1L970.36 640.32" stroke="hsl(228.5, 77.2%, 51.5%)" stroke-width="1.5"></path><path d="M845.46 662.1L992.46 543.8" stroke="hsl(228.5, 77.2%, 51.5%)" stroke-width="1.5"></path><path d="M845.46 662.1L1095.04 499.59" stroke="hsl(228.5, 77.2%, 51.5%)" stroke-width="1.5"></path><path d="M966.6 383.81L966.6 383.81" stroke="hsl(228.5, 77.2%, 51.5%)" stroke-width="1.5"></path><path d="M992.46 543.8L992.46 543.8" stroke="hsl(228.5, 77.2%, 51.5%)" stroke-width="1.5"></path><path d="M992.46 543.8L970.36 640.32" stroke="hsl(228.5, 77.2%, 51.5%)" stroke-width="1.5"></path><path d="M970.36 640.32L970.36 640.32" stroke="hsl(228.5, 77.2%, 51.5%)" stroke-width="1.5"></path><path d="M1160.58 -82.35L1160.58 -82.35" stroke="hsl(228.5, 77.2%, 51.5%)" stroke-width="1.5"></path><path d="M1160.58 -82.35L1296.32 -107.44" stroke="hsl(228.5, 77.2%, 51.5%)" stroke-width="1.5"></path><path d="M1160.58 -82.35L1160.03 109.4" stroke="hsl(228.5, 77.2%, 51.5%)" stroke-width="1.5"></path><path d="M1160.58 -82.35L1397.2 -100.71" stroke="hsl(228.5, 77.2%, 51.5%)" stroke-width="1.5"></path><path d="M1160.03 109.4L1160.03 109.4" stroke="hsl(228.5, 77.2%, 51.5%)" stroke-width="1.5"></path><path d="M1160.03 109.4L1298.59 240.83" stroke="hsl(228.5, 77.2%, 51.5%)" stroke-width="1.5"></path><path d="M1160.03 109.4L1296.32 -107.44" stroke="hsl(228.5, 77.2%, 51.5%)" stroke-width="1.5"></path><path d="M1141.51 380.91L1141.51 380.91" stroke="hsl(228.5, 77.2%, 51.5%)" stroke-width="1.5"></path><path d="M1141.51 380.91L1095.04 499.59" stroke="hsl(228.5, 77.2%, 51.5%)" stroke-width="1.5"></path><path d="M1141.51 380.91L1270.98 385.72" stroke="hsl(228.5, 77.2%, 51.5%)" stroke-width="1.5"></path><path d="M1141.51 380.91L966.6 383.81" stroke="hsl(228.5, 77.2%, 51.5%)" stroke-width="1.5"></path><path d="M1095.04 499.59L1095.04 499.59" stroke="hsl(228.5, 77.2%, 51.5%)" stroke-width="1.5"></path><path d="M1095.04 499.59L992.46 543.8" stroke="hsl(228.5, 77.2%, 51.5%)" stroke-width="1.5"></path><path d="M1095.04 499.59L966.6 383.81" stroke="hsl(228.5, 77.2%, 51.5%)" stroke-width="1.5"></path><path d="M1095.04 499.59L970.36 640.32" stroke="hsl(228.5, 77.2%, 51.5%)" stroke-width="1.5"></path><path d="M1095.04 499.59L1270.98 385.72" stroke="hsl(228.5, 77.2%, 51.5%)" stroke-width="1.5"></path><path d="M1095.04 499.59L1159.33 241.08" stroke="hsl(228.5, 77.2%, 51.5%)" stroke-width="1.5"></path><path d="M1296.32 -107.44L1296.32 -107.44" stroke="hsl(228.5, 77.2%, 51.5%)" stroke-width="1.5"></path><path d="M1296.32 -107.44L1445.91 90.45" stroke="hsl(228.5, 77.2%, 51.5%)" stroke-width="1.5"></path><path d="M1270.98 385.72L1270.98 385.72" stroke="hsl(228.5, 77.2%, 51.5%)" stroke-width="1.5"></path><path d="M1270.98 385.72L1390.89 355.54" stroke="hsl(228.5, 77.2%, 51.5%)" stroke-width="1.5"></path><path d="M1270.98 385.72L1437.27 261.92" stroke="hsl(228.5, 77.2%, 51.5%)" stroke-width="1.5"></path><path d="M1445.91 90.45L1445.91 90.45" stroke="hsl(228.5, 77.2%, 51.5%)" stroke-width="1.5"></path><path d="M1445.91 90.45L1437.27 261.92" stroke="hsl(228.5, 77.2%, 51.5%)" stroke-width="1.5"></path><path d="M1445.91 90.45L1570.18 -50.98" stroke="hsl(228.5, 77.2%, 51.5%)" stroke-width="1.5"></path><path d="M1437.27 261.92L1437.27 261.92" stroke="hsl(228.5, 77.2%, 51.5%)" stroke-width="1.5"></path><path d="M1437.27 261.92L1390.89 355.54" stroke="hsl(228.5, 77.2%, 51.5%)" stroke-width="1.5"></path><path d="M1437.27 261.92L1597.48 253.29" stroke="hsl(228.5, 77.2%, 51.5%)" stroke-width="1.5"></path><path d="M1390.89 355.54L1390.89 355.54" stroke="hsl(228.5, 77.2%, 51.5%)" stroke-width="1.5"></path><path d="M1390.89 355.54L1606.31 383.68" stroke="hsl(228.5, 77.2%, 51.5%)" stroke-width="1.5"></path><path d="M1390.89 355.54L1597.48 253.29" stroke="hsl(228.5, 77.2%, 51.5%)" stroke-width="1.5"></path><path d="M1570.18 -50.98L1570.18 -50.98" stroke="hsl(228.5, 77.2%, 51.5%)" stroke-width="1.5"></path><path d="M1597.48 253.29L1597.48 253.29" stroke="hsl(228.5, 77.2%, 51.5%)" stroke-width="1.5"></path><path d="M1597.48 253.29L1606.31 383.68" stroke="hsl(228.5, 77.2%, 51.5%)" stroke-width="1.5"></path><path d="M1606.31 383.68L1606.31 383.68" stroke="hsl(228.5, 77.2%, 51.5%)" stroke-width="1.5"></path><path d="M1606.31 383.68L1583.49 518.47" stroke="hsl(228.5, 77.2%, 51.5%)" stroke-width="1.5"></path><path d="M1606.31 383.68L1437.27 261.92" stroke="hsl(228.5, 77.2%, 51.5%)" stroke-width="1.5"></path><path d="M1583.49 518.47L1583.49 518.47" stroke="hsl(228.5, 77.2%, 51.5%)" stroke-width="1.5"></path><path d="M1583.49 518.47L1390.89 355.54" stroke="hsl(228.5, 77.2%, 51.5%)" stroke-width="1.5"></path><circle r="25" cx="798.99" cy="492.15" fill="url(&quot;#SvgjsRadialGradient1007&quot;)"></circle><circle r="25" cx="1159.33" cy="241.08" fill="url(&quot;#SvgjsRadialGradient1007&quot;)"></circle><circle r="25" cx="1298.59" cy="240.83" fill="url(&quot;#SvgjsRadialGradient1007&quot;)"></circle><circle r="25" cx="1265.2" cy="706.17" fill="url(&quot;#SvgjsRadialGradient1007&quot;)"></circle><circle r="25" cx="1397.2" cy="-100.71" fill="url(&quot;#SvgjsRadialGradient1007&quot;)"></circle><circle r="25" cx="1438.9" cy="540.64" fill="url(&quot;#SvgjsRadialGradient1007&quot;)"></circle><circle r="25" cx="1586.96" cy="76.99" fill="url(&quot;#SvgjsRadialGradient1007&quot;)"></circle><circle r="25" cx="1564.29" cy="645.81" fill="url(&quot;#SvgjsRadialGradient1007&quot;)"></circle><circle r="5" cx="-53.49" cy="536.69" fill="#8b9ad9"></circle><circle r="5" cx="74.94" cy="544.92" fill="#8b9ad9"></circle><circle r="5" cx="106.62" cy="678.71" fill="#8b9ad9"></circle><circle r="5" cx="202.59" cy="511.8" fill="#8b9ad9"></circle><circle r="5" cx="222.26" cy="651.67" fill="#8b9ad9"></circle><circle r="5" cx="338.69" cy="500.14" fill="#8b9ad9"></circle><circle r="5" cx="376.36" cy="669.1" fill="#8b9ad9"></circle><circle r="5" cx="554.41" cy="402.3" fill="#8b9ad9"></circle><circle r="5" cx="558.49" cy="492.22" fill="#8b9ad9"></circle><circle r="5" cx="539.75" cy="681.8" fill="#8b9ad9"></circle><circle r="5" cx="705.15" cy="648.64" fill="#8b9ad9"></circle><circle r="5" cx="854.55" cy="339.54" fill="#8b9ad9"></circle><circle r="5" cx="845.46" cy="662.1" fill="#8b9ad9"></circle><circle r="5" cx="966.6" cy="383.81" fill="#8b9ad9"></circle><circle r="5" cx="992.46" cy="543.8" fill="#8b9ad9"></circle><circle r="5" cx="970.36" cy="640.32" fill="#8b9ad9"></circle><circle r="5" cx="1160.58" cy="-82.35" fill="#8b9ad9"></circle><circle r="5" cx="1160.03" cy="109.4" fill="#8b9ad9"></circle><circle r="5" cx="1141.51" cy="380.91" fill="#8b9ad9"></circle><circle r="5" cx="1095.04" cy="499.59" fill="#8b9ad9"></circle><circle r="5" cx="1296.32" cy="-107.44" fill="#8b9ad9"></circle><circle r="5" cx="1270.98" cy="385.72" fill="#8b9ad9"></circle><circle r="5" cx="1445.91" cy="90.45" fill="#8b9ad9"></circle><circle r="5" cx="1437.27" cy="261.92" fill="#8b9ad9"></circle><circle r="5" cx="1390.89" cy="355.54" fill="#8b9ad9"></circle><circle r="5" cx="1570.18" cy="-50.98" fill="#8b9ad9"></circle><circle r="5" cx="1597.48" cy="253.29" fill="#8b9ad9"></circle><circle r="5" cx="1606.31" cy="383.68" fill="#8b9ad9"></circle><circle r="5" cx="1583.49" cy="518.47" fill="#8b9ad9"></circle></g><defs><mask id="SvgjsMask1005"><rect width="1440" height="560" fill="#ffffff"></rect></mask><linearGradient x1="15.28%" y1="-39.29%" x2="84.72%" y2="139.29%" gradientUnits="userSpaceOnUse" id="SvgjsLinearGradient1006"><stop stop-color="#0e2a47" offset="0"></stop><stop stop-color="#00459e" offset="1"></stop></linearGradient><radialGradient id="SvgjsRadialGradient1007"><stop stop-color="#ffffff" offset="0.1"></stop><stop stop-color="#1735b3" offset="0.2"></stop><stop stop-color="rgba(23, 53, 179, 0)" offset="1"></stop></radialGradient></defs></svg>